<?xml version="1.0" encoding="UTF-8"?>
<svg xmlns="http://www.w3.org/2000/svg" width="32" height="24" viewBox="0 0 32 24">
  <rect width="32" height="24" fill="#de2910"/>
  <!-- large star -->
  <polygon points="5,6 6.8,8.6 9.6,9.3 7.2,11.3 7.8,14 5,12.2 2.2,14 2.8,11.3 0.4,9.3 3.2,8.6" fill="#ffde00" transform="translate(3,0) scale(0.9)"/>
  <!-- small stars -->
  <polygon points="18,4 18.9,6 20.9,6.3 19.2,7.8 19.6,9.8 18,8.9 16.4,9.8 16.8,7.8 15.1,6.3 17.1,6" fill="#ffde00" transform="translate(-2,4) scale(0.4)"/>
  <polygon points="21,6 21.9,8 23.9,8.3 22.2,9.8 22.6,11.8 21,10.9 19.4,11.8 19.8,9.8 18.1,8.3 20.1,8" fill="#ffde00" transform="translate(-2,6) scale(0.4)"/>
  <polygon points="21,10 21.9,12 23.9,12.3 22.2,13.8 22.6,15.8 21,14.9 19.4,15.8 19.8,13.8 18.1,12.3 20.1,12" fill="#ffde00" transform="translate(-2,8) scale(0.4)"/>
</svg>